<svg width="40" height="40" viewBox="0 0 100 100" fill="none" xmlns="http://www.w3.org/2000/svg">
  <path d="M50 0C26.86 0 8 18.86 8 42C8 64.92 41.86 94.9 46.16 98.84C48.12 100.6 50.88 100.6 52.84 98.84C57.14 94.9 92 64.92 92 42C92 18.86 73.14 0 50 0ZM50 60C38.96 60 30 51.04 30 40C30 28.96 38.96 20 50 20C61.04 20 70 28.96 70 40C70 51.04 61.04 60 50 60Z" fill="#AE0000"/>
  <text x="50" y="48" font-family="Verdana, sans-serif" font-size="28" font-weight="bold" fill="white" text-anchor="middle" dominant-baseline="middle">W</text>
</svg>